<svg xmlns="http://www.w3.org/2000/svg" width="42.32" height="32.685" viewBox="0 0 42.32 32.685">
  <g id="Group_2468" data-name="Group 2468" transform="translate(-8.919 -9)">
    <g id="Group_2399" data-name="Group 2399" transform="translate(8.919 9)">
      <g id="Group_2397" data-name="Group 2397">
        <path id="Path_15837" data-name="Path 15837" d="M22.943,1014.84c-4.988-.182-9.267,3-9.843,7.325a6.939,6.939,0,0,0-4.7,5.059c-3.619.023-6.724,2.422-6.891,5.691a5.628,5.628,0,0,0,4.739,5.953.558.558,0,0,0,.061,0H22.9l0-1.166-16.542,0a4.5,4.5,0,0,1-3.729-4.733c.133-2.613,2.792-4.752,6.055-4.634a.29.29,0,0,0,.13.026.571.571,0,0,0,.56-.521,5.811,5.811,0,0,1,4.324-4.7.578.578,0,0,0,.4-.514c.287-3.792,4.147-6.806,8.8-6.637,4.722.175,8.268,3.532,8.072,7.388-.008.162-.024.327-.046.491a.593.593,0,0,0,.166.5.553.553,0,0,0,.488.156,6.657,6.657,0,0,1,1.37-.093,5.732,5.732,0,0,1,5.322,3.51.571.571,0,0,0,.389.367c2.54.684,4.135,2.678,4.027,4.814q0,.018,0,.036c.021,2.2-.729,3.162-1.83,3.753l.522,1.033c1.4-.754,2.451-2.279,2.434-4.778a6.077,6.077,0,0,0-4.62-5.877,6.84,6.84,0,0,0-6.2-4.022h0a7.976,7.976,0,0,0-.911.06c.158-4.562-3.959-8.308-9.139-8.5ZM8.714,1027.178h0Z" transform="translate(-1.501 -1014.831)" fill="#7a7d8a"/>
        <path id="Path_15838" data-name="Path 15838" d="M22.312,1018.99a4.385,4.385,0,0,0-4.064,1.071,7.042,7.042,0,0,0-1.991,4.249,7.069,7.069,0,0,0-2.379.829,4.076,4.076,0,0,0-2.132,3.135.52.52,0,0,0,1.035.093,2.959,2.959,0,0,1,1.624-2.333,7.167,7.167,0,0,1,2.359-.819.519.519,0,0,0,.437-.458,6.113,6.113,0,0,1,1.75-3.927,3.282,3.282,0,0,1,3.113-.829.52.52,0,0,0,.249-1.01Z" transform="translate(-1.812 -1015.37)" fill="#7a7d8a"/>
        <path id="Path_15839" data-name="Path 15839" d="M29.1,1027.65l.4,1.739-.086.022-.022.009-.076.027c-.119.039-.235.08-.347.123l-.1.035c-.069.024-.139.051-.211.08l-.014.009-.014.009-.085.041c-.1.044-.2.09-.291.137-.046.021-.093.044-.142.069l-.1.048-.909-1.491-3.922,3.849,1.479.931c-.015.028-.031.055-.046.083s-.03.048-.051.09l0,.009,0,.009c-.036.075-.07.151-.1.227-.025.051-.049.1-.073.152l0,.009,0,.009c-.012.029-.026.059-.039.091s-.038.082-.058.125h0c-.014.031-.028.065-.042.1l-.007.016-.005.015c-.026.074-.052.149-.076.223-.02.055-.039.108-.058.161h0c-.018.052-.03.092-.036.112l-.017.049-1.7-.413-.046,5.49,1.706-.386c.015.054.03.109.046.159v-.009c.014.047.029.1.047.161l0,.016.005.016c.034.092.07.182.108.274q.063.167.134.332l.047.117.007.016.007.016c.036.073.073.147.11.217s.06.109.088.164l-1.5.91,3.858,3.914.944-1.494a8.1,8.1,0,0,0,.724.369l-.146-.091-.014-.012c.147.146.336.164.261.144l-.063-.021c.21.087.425.162.641.23a.634.634,0,0,0,.061.021l-.416,1.7,5.5.046-.387-1.709.022-.009.027-.009a.193.193,0,0,1,.044-.018,8.081,8.081,0,0,0,1.367-.607l.936,1.536,3.922-3.851-1.491-.937c.043-.078.088-.155.129-.235.053-.1.1-.212.152-.32h0c.054-.118.1-.237.152-.357q.091-.232.168-.469h.022l.019-.081,1.7.411.046-5.491-1.724.391c-.025-.086-.043-.172-.071-.257l0-.01c-.007-.022-.016-.048-.01-.027l0-.009,0-.009c-.075-.224-.159-.444-.254-.66h0c-.042-.092-.086-.185-.132-.278l-.007-.012c-.034-.073-.072-.143-.108-.215l1.5-.914-3.858-3.913-.937,1.482-.13-.075h-.012c-.069-.035-.144-.073-.223-.112l-.1-.049h-.014c-.221-.1-.445-.2-.675-.281l-.083-.029h-.02c-.071-.025-.145-.044-.217-.068l.416-1.7-.656-.009c-1.49-.012-2.848-.045-4.188-.071l-.665-.014Zm1.31,1.064c.924.019,1.879.036,2.88.048l-.345,1.409.5.127c.231.059.46.128.684.21l.086.03c.2.073.4.154.589.245h0l.093.064h.041l.11.055c.079.044.156.087.23.13h.007l.008.009c.1.054.194.107.288.162l.433.255.77-1.22,2.017,2.046-1.233.748.244.438.044.076,0,.009.007.009c.03.049.057.1.088.154.063.117.124.237.181.357l0,.009,0,.009c.04.081.08.162.118.245q.124.283.222.575c0,.01.012.035.007.019l0,.009,0,.009c.074.221.138.446.189.673l.115.506,1.431-.323-.024,2.866-1.435-.349-.12.509c-.011.049-.025.1-.042.162l.03-.137-.039.166c-.011.045-.019.082-.029.119-.019.064-.039.126-.059.189h0q-.068.211-.149.416-.062.158-.132.311h0c-.042.094-.085.186-.132.279-.071.14-.146.278-.227.415h0c-.031.054-.06.1-.088.147,0,0-.007.009-.03.048l-.259.435,1.23.773-2.049,2.012-.76-1.247-.443.269a7.075,7.075,0,0,1-1.648.731l-.037.012c-.148.047-.3.088-.453.125l-.5.122.321,1.411-2.875-.023.343-1.406-.492-.13c-.105-.028-.211-.058-.315-.09h-.007c-.047-.013-.1-.032-.171-.054h-.007q-.264-.083-.519-.186h0l-.08-.034a7.117,7.117,0,0,1-1.034-.526l-.438-.269-.772,1.22-2.015-2.044L26,1041.3l-.261-.442q-.161-.272-.3-.557l-.005-.01-.005-.01c-.031-.058-.06-.115-.088-.172l-.039-.1,0-.009,0-.009c-.043-.1-.084-.2-.122-.3l0-.009,0-.009c-.03-.074-.06-.148-.088-.224-.013-.042-.026-.089-.042-.144h0c-.026-.083-.05-.163-.069-.237l0-.009,0-.009c-.029-.1-.057-.2-.083-.294h0l-.01-.041-.124-.5-1.4.318.024-2.866,1.425.345.112-.521c0-.016.01-.038.017-.064l0-.01,0-.012c.01-.041.02-.087.034-.135l0-.012s0,0,0-.009l.032-.1c.013-.039.027-.079.042-.123l0-.01,0-.01c.012-.042.02-.065.022-.069h0c.019-.056.038-.112.058-.164l.005-.012,0-.01c.017-.054.034-.108.052-.161,0,0,0-.009.005-.01l.034-.08h0l.059-.13.005-.01,0-.01.027-.064.007-.014c.022-.046.042-.093.064-.139l.005-.009.005-.01c.028-.063.055-.126.085-.188l0-.009s0,0,0-.009l.027-.048.007-.009.005-.01c.083-.159.169-.315.262-.465l.271-.438-1.222-.77,2.047-2.012.751,1.232.44-.257c.1-.061.206-.119.308-.173l.008-.009c.059-.029.113-.055.161-.078l.008-.009h.008c.035-.018.074-.036.115-.054l.01-.009.008-.009c.087-.043.172-.084.257-.122h.007l.059-.029h0c.056-.022.114-.045.174-.066h.005l.095-.034h.02c.105-.041.209-.078.31-.11h.014a.286.286,0,0,1,.044-.016l.2-.051h0a.715.715,0,0,0,.12-.034l-.037.012c.088-.026.176-.05.262-.073l.486-.127-.112-.491-.211-.931Zm4.951,1.191s.008,0,.01.009a.27.27,0,0,1,.059.049s-.029-.025-.069-.054Zm-1.327.555a.8.8,0,0,0,.247.074c-.015,0-.04-.009-.071-.01l-.049-.009a.561.561,0,0,1-.076-.027.286.286,0,0,1-.051-.029Zm.245.078h.012c.014,0,.007.009.022.009l-.034-.009Zm-.311,13.36c-.025,0-.016.009-.037.009h-.02Z" transform="translate(-0.94 -1013.965)" fill="#7a7d8a"/>
        <path id="Path_15840" data-name="Path 15840" d="M32.474,1032.51a5.3,5.3,0,1,0,5.267,5.344,5.313,5.313,0,0,0-5.267-5.344Zm-.009,1.041a4.26,4.26,0,1,1-4.305,4.225A4.257,4.257,0,0,1,32.465,1033.55Z" transform="translate(-1.587 -1014.625)" fill="#7a7d8a"/>
      </g>
    </g>
  </g>
</svg>
