<svg xmlns="http://www.w3.org/2000/svg" width="60" height="50" viewBox="0 0 60 50">
  <g id="Group_2467" data-name="Group 2467" transform="translate(-0.459)">
    <rect id="Rectangle_5740" data-name="Rectangle 5740" width="60" height="50" transform="translate(0.459 0)" fill="#fff"/>
    <g id="Group_2395" data-name="Group 2395" transform="translate(10.459 5)">
      <g id="Group_2394" data-name="Group 2394" transform="translate(0)">
        <g id="Group_2393" data-name="Group 2393">
          <path id="Path_15827" data-name="Path 15827" d="M35.109,3.079h0Zm-33.672-.1c1.093.763,7.774,1.785,16.778,1.785S33.9,3.737,34.993,2.974C33.9,2.212,27.22,1.19,18.215,1.19S2.53,2.212,1.437,2.974ZM18.215,5.949a99.061,99.061,0,0,1-12.223-.7C.712,4.55,0,3.707,0,2.974S.712,1.4,5.992.7A99.052,99.052,0,0,1,18.215,0,99.052,99.052,0,0,1,30.438.7c5.28.7,5.992,1.539,5.992,2.271s-.712,1.575-5.992,2.271a99.06,99.06,0,0,1-12.223.7Z" transform="translate(0 0)" fill="#7a7d8a" fill-rule="evenodd"/>
          <path id="Path_15828" data-name="Path 15828" d="M52.595,16.778c-.329,0-.595-.357-.595-.8V4.8c0-.442.266-.8.595-.8s.595.357.595.8V15.98c0,.442-.266.8-.595.8" transform="translate(-16.759 -1.62)" fill="#7a7d8a" fill-rule="evenodd"/>
          <path id="Path_15829" data-name="Path 15829" d="M.595,15.81A.678.678,0,0,1,0,15.072V4.738A.678.678,0,0,1,.595,4a.678.678,0,0,1,.595.738V15.072a.678.678,0,0,1-.595.738" transform="translate(0 -1.62)" fill="#7a7d8a" fill-rule="evenodd"/>
          <path id="Path_15830" data-name="Path 15830" d="M36.114,27.19a8.924,8.924,0,1,0,8.924,8.924,8.934,8.934,0,0,0-8.924-8.924m0,19.038A10.114,10.114,0,1,1,46.228,36.114,10.125,10.125,0,0,1,36.114,46.228" transform="translate(-6.228 -6.228)" fill="#7a7d8a" fill-rule="evenodd"/>
          <path id="Path_15831" data-name="Path 15831" d="M16.852,43.9h-.378l-.411,0a77.256,77.256,0,0,1-10.779-.7C.628,42.5,0,41.657,0,40.924V32.595a.595.595,0,0,1,1.185-.078c.643.769,6.664,1.863,14.879,1.863l.59,0h0a.595.595,0,0,1,0,1.19l-.6,0a77.159,77.159,0,0,1-10.779-.7,17.12,17.12,0,0,1-4.094-.981v6.967c.669.769,6.681,1.857,14.873,1.857l.417,0c.252,0,.49,0,.764,0h.009a.595.595,0,0,1,.008,1.19c-.144,0-.278,0-.41,0" transform="translate(0 -8.658)" fill="#7a7d8a" fill-rule="evenodd"/>
          <path id="Path_15832" data-name="Path 15832" d="M.675,30.105A.718.718,0,0,1,0,29.349V18.757A.718.718,0,0,1,.675,18a.706.706,0,0,1,.669.657c.729.977,7.557,2.369,16.872,2.369s16.143-1.391,16.872-2.369A.706.706,0,0,1,35.756,18a.718.718,0,0,1,.675.757v8.322a.679.679,0,1,1-1.349,0V20.4a17.726,17.726,0,0,1-4.643,1.248,78.185,78.185,0,0,1-12.223.9,78.185,78.185,0,0,1-12.223-.9A17.726,17.726,0,0,1,1.349,20.4v8.952a.718.718,0,0,1-.675.757" transform="translate(0 -5.53)" fill="#7a7d8a" fill-rule="evenodd"/>
          <path id="Path_15833" data-name="Path 15833" d="M35.019,39.092a.928.928,0,0,0-.927.927v4.7a.928.928,0,0,0,.927.927H41.9a.928.928,0,0,0,.927-.927v-4.7a.928.928,0,0,0-.927-.927ZM41.9,46.737H35.019A2.021,2.021,0,0,1,33,44.718v-4.7A2.021,2.021,0,0,1,35.019,38H41.9a2.021,2.021,0,0,1,2.019,2.019v4.7A2.021,2.021,0,0,1,41.9,46.737Z" transform="translate(-8.086 -10.922)" fill="#7a7d8a" fill-rule="evenodd"/>
          <path id="Path_15834" data-name="Path 15834" d="M41.615,34.03a.4.4,0,0,1-.4-.4V32.579A1.908,1.908,0,0,0,39.2,30.806a2.074,2.074,0,0,0-1.813,1,.4.4,0,0,1-.7-.392A2.853,2.853,0,0,1,39.2,30a2.712,2.712,0,0,1,2.821,2.579v1.048a.4.4,0,0,1-.4.4" transform="translate(-8.668 -7.44)" fill="#7a7d8a" fill-rule="evenodd"/>
          <path id="Path_15835" data-name="Path 15835" d="M42.595,45.38A.594.594,0,0,1,42,44.785v-1.19a.595.595,0,0,1,1.19,0v1.19a.594.594,0,0,1-.595.595" transform="translate(-14.633 -13.934)" fill="#7a7d8a" fill-rule="evenodd"/>
        </g>
      </g>
    </g>
  </g>
</svg>
