<svg xmlns="http://www.w3.org/2000/svg" width="60" height="50" viewBox="0 0 60 50">
  <g id="Group_2463" data-name="Group 2463" transform="translate(-416 -1095)">
    <rect id="Rectangle_5740" data-name="Rectangle 5740" width="60" height="50" transform="translate(416 1095)" fill="none"/>
    <path id="Path_15941" data-name="Path 15941" d="M28.095,268.971a.667.667,0,1,0,0,1.333H46.762a.667.667,0,0,0,0-1.333Zm-4-9.334a.667.667,0,0,0-.667.667v22.667a.667.667,0,0,0,.667.666h20a.667.667,0,1,0,0-1.333H24.762V260.971h2.666a.667.667,0,0,0,0-1.334Zm22.667-2.666a.667.667,0,1,0,0,1.333H58.095v18a.667.667,0,1,0,1.333,0V257.638a.667.667,0,0,0-.666-.666Zm6.666,30.666a.667.667,0,0,0-.666.667v3.478a.667.667,0,1,0,1.333,0V288.3a.667.667,0,0,0-.667-.667Zm-9.333,4a.667.667,0,1,0,0,1.334H62.762a.667.667,0,0,0,0-1.334Zm0-16a.685.685,0,0,0-.667.664v12a.667.667,0,0,0,.667.667H62.762a.667.667,0,0,0,.666-.667v-12a.667.667,0,0,0-.666-.667Zm.667,1.334H62.095v10.666H44.762Zm-7.334-11.334a.667.667,0,0,0-.666.667v3a.667.667,0,1,0,1.333,0v-3a.667.667,0,0,0-.667-.667Zm-10-12v12a.667.667,0,0,0,.667.667H46.763a.667.667,0,0,0,.666-.667v-12a.667.667,0,0,0-.666-.667H28.109a.63.63,0,0,0-.68.667Zm1.333.667H46.095v10.667H28.762Z" transform="translate(402.572 847.03)" fill="#7a7d8a"/>
  </g>
</svg>
