<svg xmlns="http://www.w3.org/2000/svg" width="60" height="49.688" viewBox="0 0 60 49.688">
  <g id="Group_2466" data-name="Group 2466" transform="translate(-2 -4.917)">
    <rect id="Rectangle_5740" data-name="Rectangle 5740" width="60" height="49.688" transform="translate(2 4.917)" fill="#fff"/>
    <g id="Group_2388" data-name="Group 2388" transform="translate(12 8.917)">
      <path id="Path_15808" data-name="Path 15808" d="M36.8,12.981q-.271,0-.532.02A11.976,11.976,0,0,0,24.454,2.691,11.853,11.853,0,0,0,13.646,9.585a8.232,8.232,0,0,0-1.856-.21A8.591,8.591,0,0,0,8.517,25.905V41.429A2.377,2.377,0,0,0,10.891,43.8H29.223A2.378,2.378,0,0,0,31.6,41.429V26.564h5.21a6.792,6.792,0,1,0,0-13.584ZM9.92,34.906v-6.08H30.19v6.08ZM30.191,25.85v1.57H9.921V22.3a.973.973,0,0,1,.971-.971h18.33a.973.973,0,0,1,.971.971ZM29.223,42.4H10.891a.973.973,0,0,1-.971-.972V36.315H30.19v5.114A.973.973,0,0,1,29.223,42.4Zm7.584-17.24H31.594V22.3a2.377,2.377,0,0,0-2.371-2.374H10.891A2.376,2.376,0,0,0,8.517,22.3v2.062A7.19,7.19,0,0,1,11.79,10.779a6.829,6.829,0,0,1,2.049.311.7.7,0,0,0,.861-.408A10.521,10.521,0,0,1,34.95,13.843a.7.7,0,0,0,.834.637,5.251,5.251,0,0,1,1.02-.1,5.389,5.389,0,1,1,0,10.778ZM13.4,23.879a.74.74,0,0,1,.2.5.7.7,0,0,1-1.2.5.722.722,0,0,1-.2-.5.74.74,0,0,1,.2-.5.842.842,0,0,1,.231-.147.706.706,0,0,1,.764.147Zm.2,7.989a.678.678,0,0,1-.2.491.7.7,0,0,1-1.2-.491.951.951,0,0,1,.014-.14.593.593,0,0,1,.042-.134.518.518,0,0,1,.063-.119l.084-.1a.669.669,0,0,1,.112-.084.713.713,0,0,1,.119-.07.74.74,0,0,1,.133-.034.6.6,0,0,1,.274,0,.842.842,0,0,1,.126.034,1.268,1.268,0,0,1,.126.07,1.1,1.1,0,0,1,.105.084,1.192,1.192,0,0,1,.084.1.518.518,0,0,1,.063.119.593.593,0,0,1,.042.134.477.477,0,0,1,.014.14Zm-.2,6.993a.725.725,0,0,1,.2.5.694.694,0,0,1-.049.267.713.713,0,0,1-.154.224.7.7,0,0,1-1.2-.491.762.762,0,0,1,.056-.274.693.693,0,0,1,.147-.224.834.834,0,0,1,.231-.154.715.715,0,0,1,.764.154Z" transform="translate(-3.207 -2.691)" fill="#7a7d8a"/>
    </g>
  </g>
</svg>
