<svg xmlns="http://www.w3.org/2000/svg" width="60" height="50" viewBox="0 0 60 50">
  <g id="Group_2469" data-name="Group 2469" transform="translate(-0.378)">
    <rect id="Rectangle_5740" data-name="Rectangle 5740" width="60" height="50" transform="translate(0.378)" fill="#fff"/>
    <g id="Group_2452" data-name="Group 2452" transform="translate(12.378 7)">
      <path id="Path_15936" data-name="Path 15936" d="M28.925,12.77H17.557V2.6a.6.6,0,0,0-.6-.6H2.6a.6.6,0,0,0-.6.6V37.3a.6.6,0,0,0,.6.6H28.925a.6.6,0,0,0,.6-.6V13.368A.6.6,0,0,0,28.925,12.77ZM3.2,3.2H16.36V36.7h-1.8V31.917h.6v-1.2H4.393v1.2h.6V36.7H3.2Zm2.992,28.72H9.18V36.7H6.188ZM10.377,36.7V31.917h2.992V36.7Zm17.95,0H17.557V13.967h10.77Z" transform="translate(-2 -2)" fill="#7a7d8a"/>
      <path id="Path_15937" data-name="Path 15937" d="M57.18,43.588a3.59,3.59,0,1,0-4.188,3.536v6.037h1.2V47.124A3.594,3.594,0,0,0,57.18,43.588ZM54.188,45.9v-.864l1.021-1.021-.846-.846-.774.774-.774-.774-.846.846,1.021,1.021V45.9a2.393,2.393,0,1,1,1.2,0Z" transform="translate(-21.28 -17.261)" fill="#7a7d8a"/>
      <rect id="Rectangle_5776" data-name="Rectangle 5776" width="1" height="1" transform="translate(2.239 4.632)" fill="#7a7d8a"/>
      <rect id="Rectangle_5777" data-name="Rectangle 5777" width="1" height="1" transform="translate(4.239 4.632)" fill="#7a7d8a"/>
      <rect id="Rectangle_5778" data-name="Rectangle 5778" width="1" height="1" transform="translate(7.239 4.632)" fill="#7a7d8a"/>
      <rect id="Rectangle_5779" data-name="Rectangle 5779" width="1" height="1" transform="translate(9.239 4.632)" fill="#7a7d8a"/>
      <rect id="Rectangle_5780" data-name="Rectangle 5780" width="2" height="1" transform="translate(11.239 4.632)" fill="#7a7d8a"/>
      <rect id="Rectangle_5781" data-name="Rectangle 5781" width="1" height="1" transform="translate(2.239 6.632)" fill="#7a7d8a"/>
      <rect id="Rectangle_5782" data-name="Rectangle 5782" width="1" height="1" transform="translate(4.239 6.632)" fill="#7a7d8a"/>
      <rect id="Rectangle_5783" data-name="Rectangle 5783" width="1" height="1" transform="translate(7.239 6.632)" fill="#7a7d8a"/>
      <rect id="Rectangle_5784" data-name="Rectangle 5784" width="1" height="1" transform="translate(9.239 6.632)" fill="#7a7d8a"/>
      <rect id="Rectangle_5785" data-name="Rectangle 5785" width="2" height="1" transform="translate(11.239 6.632)" fill="#7a7d8a"/>
      <rect id="Rectangle_5791" data-name="Rectangle 5791" width="1" height="1" transform="translate(2.239 11.632)" fill="#7a7d8a"/>
      <rect id="Rectangle_5792" data-name="Rectangle 5792" width="1" height="1" transform="translate(4.239 11.632)" fill="#7a7d8a"/>
      <rect id="Rectangle_5793" data-name="Rectangle 5793" width="1" height="1" transform="translate(7.239 11.632)" fill="#7a7d8a"/>
      <rect id="Rectangle_5794" data-name="Rectangle 5794" width="1" height="1" transform="translate(9.239 11.632)" fill="#7a7d8a"/>
      <rect id="Rectangle_5795" data-name="Rectangle 5795" width="2" height="1" transform="translate(11.239 11.632)" fill="#7a7d8a"/>
      <rect id="Rectangle_5796" data-name="Rectangle 5796" width="1" height="1" transform="translate(2.239 13.632)" fill="#7a7d8a"/>
      <rect id="Rectangle_5797" data-name="Rectangle 5797" width="1" height="1" transform="translate(4.239 13.632)" fill="#7a7d8a"/>
      <rect id="Rectangle_5798" data-name="Rectangle 5798" width="1" height="1" transform="translate(7.239 13.632)" fill="#7a7d8a"/>
      <rect id="Rectangle_5799" data-name="Rectangle 5799" width="1" height="1" transform="translate(9.239 13.632)" fill="#7a7d8a"/>
      <rect id="Rectangle_5800" data-name="Rectangle 5800" width="2" height="1" transform="translate(11.239 13.632)" fill="#7a7d8a"/>
      <rect id="Rectangle_5806" data-name="Rectangle 5806" width="1" height="1" transform="translate(2.239 18.632)" fill="#7a7d8a"/>
      <rect id="Rectangle_5807" data-name="Rectangle 5807" width="1" height="1" transform="translate(4.239 18.632)" fill="#7a7d8a"/>
      <rect id="Rectangle_5808" data-name="Rectangle 5808" width="1" height="1" transform="translate(7.239 18.632)" fill="#7a7d8a"/>
      <rect id="Rectangle_5809" data-name="Rectangle 5809" width="1" height="1" transform="translate(9.239 18.632)" fill="#7a7d8a"/>
      <rect id="Rectangle_5810" data-name="Rectangle 5810" width="2" height="1" transform="translate(11.239 18.632)" fill="#7a7d8a"/>
      <rect id="Rectangle_5811" data-name="Rectangle 5811" width="1" height="1" transform="translate(2.239 21.632)" fill="#7a7d8a"/>
      <rect id="Rectangle_5812" data-name="Rectangle 5812" width="1" height="1" transform="translate(4.239 21.632)" fill="#7a7d8a"/>
      <rect id="Rectangle_5813" data-name="Rectangle 5813" width="1" height="1" transform="translate(7.239 21.632)" fill="#7a7d8a"/>
      <rect id="Rectangle_5814" data-name="Rectangle 5814" width="1" height="1" transform="translate(9.239 21.632)" fill="#7a7d8a"/>
      <rect id="Rectangle_5815" data-name="Rectangle 5815" width="2" height="1" transform="translate(11.239 21.632)" fill="#7a7d8a"/>
      <rect id="Rectangle_5821" data-name="Rectangle 5821" width="9" height="1" transform="translate(16.239 14.632)" fill="#7a7d8a"/>
      <rect id="Rectangle_5823" data-name="Rectangle 5823" width="9" height="1" transform="translate(16.239 19.632)" fill="#7a7d8a"/>
      <rect id="Rectangle_5825" data-name="Rectangle 5825" width="9" height="1" transform="translate(16.239 24.632)" fill="#7a7d8a"/>
      <rect id="Rectangle_5827" data-name="Rectangle 5827" width="9" height="1" transform="translate(16.239 29.632)" fill="#7a7d8a"/>
    </g>
  </g>
</svg>
