<svg xmlns="http://www.w3.org/2000/svg" width="39.716" height="31.76" viewBox="0 0 39.716 31.76">
  <g id="Group_2396" data-name="Group 2396" transform="translate(0)">
    <path id="Path_15789" data-name="Path 15789" d="M39.054,38.013a5.284,5.284,0,0,0-1.963-.108V21.977h1.272a.526.526,0,0,0,.259-.942l-3.368-3.722a.434.434,0,0,0-.658,0L31.17,21.1a.523.523,0,0,0,.329.878h1.26v17.2c-.7.3-1.31.6-1.761.833-.231-1.426-2.221-2.258-3.491-2.65V21.977H28.78a.526.526,0,0,0,.259-.942l-3.368-3.722a.447.447,0,0,0-.658,0L21.587,21.1a.523.523,0,0,0,.329.878h1.259v13.83c-2.063-1.01-3.951-2.2-3.955-2.2a4.307,4.307,0,0,0-1.3-.724V21.977H19.2a.526.526,0,0,0,.259-.942l-3.368-3.722a.447.447,0,0,0-.658,0L12,21.1a.523.523,0,0,0,.329.878h1.26v11.1a14.324,14.324,0,0,0-2.185.962l-.092-.6a.472.472,0,0,0-.537-.421l-9.39,1.762a.512.512,0,0,0-.38.593L3.022,48.494a.481.481,0,0,0,.458.429.388.388,0,0,0,.079-.008l9.392-1.762a.511.511,0,0,0,.38-.593L13.153,45.4A64.8,64.8,0,0,1,22.778,48.2a10.723,10.723,0,0,0,9.5-.927c2.325-1.331,6.027-2.853,7.751-4.8C41.289,41.04,40.733,38.478,39.054,38.013ZM32.623,20.948l2.3-2.544,2.3,2.544h-.6a.492.492,0,0,0-.465.514V38.018l-2.47.705V21.462a.492.492,0,0,0-.465-.514Zm-9.583,0,2.3-2.544,2.3,2.544h-.6a.492.492,0,0,0-.465.514V37.005l-2.47-.8V21.462a.492.492,0,0,0-.465-.514Zm-9.583,0,2.3-2.544,2.3,2.544h-.6a.492.492,0,0,0-.465.514V32.605H14.525V21.462a.492.492,0,0,0-.465-.514Zm-9.6,26.867L2,35.712l8.474-1.59,1.859,12.1Zm35.5-6.067c-1.576,1.781-5.213,3.29-7.513,4.607a10.03,10.03,0,0,1-8.756.873,62.508,62.508,0,0,0-10.1-2.889L11.571,35.1c1.623-.907,4.985-2.4,7.141-.635.2.128,4.966,3.131,7.784,3.671,1.169.26,4.018,1.24,3.527,2.449a4,4,0,0,1-5.484.582,10.649,10.649,0,0,0-3.7-1.369.476.476,0,0,0-.524.44.508.508,0,0,0,.4.58,9.937,9.937,0,0,1,3.358,1.24,5.593,5.593,0,0,0,3.012.951,4.784,4.784,0,0,0,3.591-1.686c2-1.13,5.979-2.922,8.151-2.313A1.761,1.761,0,0,1,39.362,41.748Z" transform="translate(-1 -17.162)" fill="#f58025"/>
    <ellipse id="Ellipse_100" data-name="Ellipse 100" cx="0.807" cy="0.807" rx="0.807" ry="0.807" transform="translate(6.666 18.763)" fill="#f58025"/>
    <ellipse id="Ellipse_101" data-name="Ellipse 101" cx="0.807" cy="0.807" rx="0.807" ry="0.807" transform="translate(3.262 19.394)" fill="#f58025"/>
  </g>
</svg>
