<svg id="Group_2454" data-name="Group 2454" xmlns="http://www.w3.org/2000/svg" width="33.718" height="36.126" viewBox="0 0 33.718 36.126">
  <g id="Group_2432" data-name="Group 2432">
    <path id="Path_15922" data-name="Path 15922" d="M32.089,16.35H29.7a.614.614,0,0,1-.6-.629V14.464A11,11,0,0,0,18.343,3.773,11,11,0,0,0,7.586,14.464v1.258a.614.614,0,0,1-.6.629H4.6a.614.614,0,0,1-.6-.629V14.464A14.6,14.6,0,0,1,18.343,0,14.6,14.6,0,0,1,32.687,14.464v1.258A.614.614,0,0,1,32.089,16.35ZM30.3,15.092h1.2v-.629A13.354,13.354,0,0,0,18.343,1.258,13.354,13.354,0,0,0,5.2,14.464v.629h1.2v-.629A12.111,12.111,0,0,1,18.343,2.515,12.111,12.111,0,0,1,30.3,14.464Z" transform="translate(-1.485)" fill="#7a7d8a"/>
    <path id="Path_15923" data-name="Path 15923" d="M27.031,57.031H24.515a2.515,2.515,0,1,1,0-5.031h2.515a2.515,2.515,0,1,1,0,5.031Zm-2.515-3.773a1.258,1.258,0,1,0,0,2.515h2.515a1.258,1.258,0,1,0,0-2.515Z" transform="translate(-8.914 -20.905)" fill="#7a7d8a"/>
    <path id="Path_15924" data-name="Path 15924" d="M38.289,52.917h-5.66a.629.629,0,1,1,0-1.258h5.66a3.777,3.777,0,0,0,3.773-3.773V46.629a.629.629,0,1,1,1.258,0v1.258A5.037,5.037,0,0,1,38.289,52.917Z" transform="translate(-13.375 -18.678)" fill="#7a7d8a"/>
    <path id="Path_15925" data-name="Path 15925" d="M7.105,39.092H1.7a1.7,1.7,0,0,1-1.7-1.7V25.7A1.7,1.7,0,0,1,1.7,24H7.105a1.7,1.7,0,0,1,1.7,1.7v11.7A1.7,1.7,0,0,1,7.105,39.092ZM1.7,25.258a.441.441,0,0,0-.441.441v11.7a.441.441,0,0,0,.441.441H7.105a.441.441,0,0,0,.441-.441V25.7a.441.441,0,0,0-.441-.441Z" transform="translate(0 -9.978)" fill="#7a7d8a"/>
    <path id="Path_15929" data-name="Path 15929" d="M7.144,36.258H4.629a.629.629,0,1,1,0-1.258H7.144a.629.629,0,1,1,0,1.258Z" transform="translate(-1.485 -13.959)" fill="#7a7d8a"/>
    <path id="Path_15930" data-name="Path 15930" d="M7.144,31.258H4.629a.629.629,0,1,1,0-1.258H7.144a.629.629,0,1,1,0,1.258Z" transform="translate(-1.485 -11.965)" fill="#7a7d8a"/>
    <path id="Path_15931" data-name="Path 15931" d="M7.144,41.258H4.629a.629.629,0,1,1,0-1.258H7.144a.629.629,0,1,1,0,1.258Z" transform="translate(-1.485 -15.953)" fill="#7a7d8a"/>
    <path id="Path_15932" data-name="Path 15932" d="M49.105,39.092H43.7a1.7,1.7,0,0,1-1.7-1.7V25.7A1.7,1.7,0,0,1,43.7,24h5.407a1.7,1.7,0,0,1,1.7,1.7v11.7A1.7,1.7,0,0,1,49.105,39.092ZM43.7,25.258a.441.441,0,0,0-.441.441v11.7a.441.441,0,0,0,.441.441h5.407a.441.441,0,0,0,.441-.441V25.7a.441.441,0,0,0-.441-.441Z" transform="translate(-17.086 -9.978)" fill="#7a7d8a"/>
    <path id="Path_15933" data-name="Path 15933" d="M49.144,36.258H46.629a.629.629,0,1,1,0-1.258h2.515a.629.629,0,1,1,0,1.258Z" transform="translate(-18.571 -13.959)" fill="#7a7d8a"/>
    <path id="Path_15934" data-name="Path 15934" d="M49.144,31.258H46.629a.629.629,0,1,1,0-1.258h2.515a.629.629,0,1,1,0,1.258Z" transform="translate(-18.571 -11.965)" fill="#7a7d8a"/>
    <path id="Path_15935" data-name="Path 15935" d="M49.144,41.258H46.629a.629.629,0,1,1,0-1.258h2.515a.629.629,0,1,1,0,1.258Z" transform="translate(-18.571 -15.953)" fill="#7a7d8a"/>
  </g>
  <g id="Group_2441" data-name="Group 2441" transform="translate(9.661 6.986)">
    <path id="Path_15920" data-name="Path 15920" d="M179.2,124v-1.142a5.982,5.982,0,0,0,.586-.242l.807.807a.4.4,0,0,0,.565,0l2.262-2.262a.4.4,0,0,0,0-.565l-.807-.807a5.984,5.984,0,0,0,.242-.586H184a.4.4,0,0,0,.4-.4v-3.2a.4.4,0,0,0-.4-.4h-1.142a5.982,5.982,0,0,0-.242-.586l.807-.807a.4.4,0,0,0,0-.565l-2.262-2.262a.4.4,0,0,0-.565,0l-.807.807a5.981,5.981,0,0,0-.586-.242V110.4a.4.4,0,0,0-.4-.4h-3.2a.4.4,0,0,0-.4.4v1.142a6,6,0,0,0-.586.242l-.807-.807a.4.4,0,0,0-.565,0l-2.262,2.262a.4.4,0,0,0,0,.565l.807.807a5.986,5.986,0,0,0-.242.586H170.4a.4.4,0,0,0-.4.4v3.2a.4.4,0,0,0,.4.4h1.142a6.006,6.006,0,0,0,.242.586l-.807.807a.4.4,0,0,0,0,.565l2.262,2.262a.4.4,0,0,0,.566,0l.807-.807a5.965,5.965,0,0,0,.586.242V124a.4.4,0,0,0,.4.4h3.2A.4.4,0,0,0,179.2,124Zm-.8-1.433V123.6H176v-1.033a.4.4,0,0,0-.286-.383,5.178,5.178,0,0,1-.987-.408.4.4,0,0,0-.473.069l-.73.73-1.7-1.7.73-.73a.4.4,0,0,0,.069-.473,5.179,5.179,0,0,1-.408-.987.4.4,0,0,0-.383-.286H170.8V116h1.033a.4.4,0,0,0,.383-.286,5.175,5.175,0,0,1,.408-.987.4.4,0,0,0-.069-.473l-.73-.73,1.7-1.7.73.73a.4.4,0,0,0,.473.069,5.173,5.173,0,0,1,.987-.408.4.4,0,0,0,.286-.383V110.8h2.4v1.033a.4.4,0,0,0,.286.383,5.179,5.179,0,0,1,.987.408.4.4,0,0,0,.473-.069l.73-.73,1.7,1.7-.73.73a.4.4,0,0,0-.069.473,5.182,5.182,0,0,1,.408.987.4.4,0,0,0,.383.286H183.6v2.4h-1.033a.4.4,0,0,0-.383.286,5.174,5.174,0,0,1-.408.987.4.4,0,0,0,.069.473l.73.73-1.7,1.7-.73-.73a.4.4,0,0,0-.473-.069,5.176,5.176,0,0,1-.987.408A.4.4,0,0,0,178.4,122.563Z" transform="translate(-170 -110)" fill="#7a7d8a"/>
    <path id="Path_15921" data-name="Path 15921" d="M223.2,160a3.2,3.2,0,1,0,3.2,3.2A3.2,3.2,0,0,0,223.2,160Zm0,5.6a2.4,2.4,0,1,1,2.4-2.4A2.4,2.4,0,0,1,223.2,165.6Z" transform="translate(-216.001 -156.001)" fill="#7a7d8a"/>
  </g>
</svg>
