<svg xmlns="http://www.w3.org/2000/svg" width="60" height="50" viewBox="0 0 60 50">
  <g id="Group_2463" data-name="Group 2463" transform="translate(-416 -1095)">
    <rect id="Rectangle_5740" data-name="Rectangle 5740" width="60" height="50" transform="translate(416 1095)" fill="none"/>
    <g id="ecosystem" transform="translate(418.125 1092.576)">
      <g id="Group_2465" data-name="Group 2465" transform="translate(-5.145 -5.996)">
        <g id="Group_2384" data-name="Group 2384" transform="translate(13.02 13.42)">
          <path id="Path_15795" data-name="Path 15795" d="M49.52,42.16a6.96,6.96,0,1,0,6.96,6.96A6.969,6.969,0,0,0,49.52,42.16Zm0,12.621a5.661,5.661,0,1,1,5.661-5.661A5.666,5.666,0,0,1,49.52,54.781Z" transform="translate(-27.891 -27.908)" fill="#7a7d8a"/>
          <path id="Path_15796" data-name="Path 15796" d="M53.02,34.761A18.208,18.208,0,0,0,38.542,16.93a3.756,3.756,0,0,0-7.5,0A18.213,18.213,0,0,0,16.573,34.761a17.736,17.736,0,0,0,.146,2.212A5.988,5.988,0,1,0,21.982,47.7a18.181,18.181,0,0,0,22.774,2.3A4.1,4.1,0,0,0,50.44,44.1,18.17,18.17,0,0,0,53.02,34.761ZM34.794,14.5a2.677,2.677,0,1,1-2.677,2.677A2.68,2.68,0,0,1,34.794,14.5ZM14.1,42.511a4.911,4.911,0,1,1,4.911,4.911A4.914,4.914,0,0,1,14.1,42.511Zm8.778,4.565a5.987,5.987,0,0,0-3.867-10.562,6.2,6.2,0,0,0-1.239.13,16.918,16.918,0,0,1-.114-1.888A17.123,17.123,0,0,1,31.138,18.012a3.755,3.755,0,0,0,7.323,0,17.133,17.133,0,0,1,11.125,25.4,4.1,4.1,0,0,0-6.23,3.515,4.046,4.046,0,0,0,.681,2.255,17.111,17.111,0,0,1-21.157-2.109Zm24.586,2.888a3.029,3.029,0,1,1,3.029-3.029A3.031,3.031,0,0,1,47.466,49.964Z" transform="translate(-13.02 -13.42)" fill="#7a7d8a"/>
        </g>
      </g>
    </g>
  </g>
</svg>
